<svg xmlns="http://www.w3.org/2000/svg" xmlns:xlink="http://www.w3.org/1999/xlink" width="41.035" height="43" viewBox="0 0 41.035 43">
  <defs>
    <style>
      .cls-1 {
        fill: #8990a0;
      }

      .cls-2 {
        fill: none;
      }

      .cls-3 {
        filter: url(#합치기_75);
      }
    </style>
    <filter id="합치기_75" x="0" y="0" width="41.035" height="43" filterUnits="userSpaceOnUse">
      <feOffset dy="3" input="SourceAlpha"/>
      <feGaussianBlur stdDeviation="3" result="blur"/>
      <feFlood flood-color="#707070" flood-opacity="0.161"/>
      <feComposite operator="in" in2="blur"/>
      <feComposite in="SourceGraphic"/>
    </filter>
  </defs>
  <g id="그룹_204" data-name="그룹 204" transform="translate(-676 -65.676)">
    <g class="cls-3" transform="matrix(1, 0, 0, 1, 676, 65.68)">
      <path id="합치기_75-2" data-name="합치기 75" class="cls-1" d="M1682.393-22l-4.284-9.944H1677a3,3,0,0,1-3-3v-3.18a3,3,0,0,1,3-3h5.961a3.025,3.025,0,0,1,.451.034L1693.63-47v20.822l-8.469-4.9L1689.348-22Zm12.071-17.108a2.554,2.554,0,0,1,1.818.754,2.56,2.56,0,0,1,.752,1.821,2.563,2.563,0,0,1-.752,1.821,2.553,2.553,0,0,1-1.818.753Z" transform="translate(-1665 53)"/>
    </g>
    <rect id="사각형_304" data-name="사각형 304" class="cls-2" width="30" height="30" transform="translate(681.5 69)"/>
  </g>
</svg>
