<svg xmlns="http://www.w3.org/2000/svg" width="30" height="30" viewBox="0 0 30 30">
  <defs>
    <style>
      .cls-1 {
        fill: none;
        opacity: 0.7;
      }

      .cls-2 {
        fill: #202326;
      }
    </style>
  </defs>
  <g id="그룹_210" data-name="그룹 210" transform="translate(-546.5 -549)">
    <rect id="사각형_320" data-name="사각형 320" class="cls-1" width="30" height="30" transform="translate(546.5 549)"/>
    <path id="합치기_75" data-name="합치기 75" class="cls-2" d="M1682.393-22l-4.284-9.944H1677a3,3,0,0,1-3-3v-3.18a3,3,0,0,1,3-3h5.961a3.025,3.025,0,0,1,.451.034L1693.63-47v20.822l-8.469-4.9L1689.348-22Zm12.071-17.108a2.554,2.554,0,0,1,1.818.754,2.56,2.56,0,0,1,.752,1.821,2.563,2.563,0,0,1-.752,1.821,2.553,2.553,0,0,1-1.818.753Z" transform="translate(-1124 597.676)"/>
  </g>
</svg>
