<svg xmlns="http://www.w3.org/2000/svg" width="25" height="25" viewBox="0 0 25 25">
  <defs>
    <style>
      .cls-1 {
        fill: none;
      }

      .cls-2 {
        fill: #505560;
      }
    </style>
  </defs>
  <g id="그룹_205" data-name="그룹 205" transform="translate(-588 -102)">
    <rect id="사각형_315" data-name="사각형 315" class="cls-1" width="25" height="25" transform="translate(588 102)"/>
    <path id="합치기_117" data-name="합치기 117" class="cls-2" d="M1684.7-27H1674l1.544-12.319h4.38v1.831a1.6,1.6,0,0,0-.439,1.106,1.562,1.562,0,0,0,1.536,1.581,1.562,1.562,0,0,0,1.537-1.581,1.6,1.6,0,0,0-.439-1.106v-1.831h5.213v1.831a1.6,1.6,0,0,0-.439,1.106,1.562,1.562,0,0,0,1.536,1.581,1.562,1.562,0,0,0,1.537-1.581,1.6,1.6,0,0,0-.439-1.106v-1.831h4.38L1695.449-27Zm2.633-9.382a1.134,1.134,0,0,1,.439-.9v-5.2a3.188,3.188,0,0,0-.9-2.235,3.012,3.012,0,0,0-2.144-.928,3.012,3.012,0,0,0-2.145.928,3.188,3.188,0,0,0-.9,2.235v5.2a1.133,1.133,0,0,1,.439.9,1.115,1.115,0,0,1-1.1,1.13,1.115,1.115,0,0,1-1.1-1.13,1.135,1.135,0,0,1,.439-.9v-5.2A4.463,4.463,0,0,1,1684.7-47h.055a4.462,4.462,0,0,1,4.334,4.518v5.2a1.134,1.134,0,0,1,.439.9,1.115,1.115,0,0,1-1.1,1.13A1.115,1.115,0,0,1,1687.331-36.382Z" transform="translate(-1084 151)"/>
  </g>
</svg>
