<svg xmlns="http://www.w3.org/2000/svg" width="35" height="35" viewBox="0 0 35 35">
  <defs>
    <style>
      .cls-1 {
        fill: none;
      }

      .cls-2 {
        fill: #505560;
      }
    </style>
  </defs>
  <g id="그룹_223" data-name="그룹 223" transform="translate(-397 -214)">
    <rect id="사각형_332" data-name="사각형 332" class="cls-1" width="35" height="35" transform="translate(397 214)"/>
    <path id="합치기_127" data-name="합치기 127" class="cls-2" d="M1538.236,26.214a18.031,18.031,0,0,1-5.152-5.143H1521a3,3,0,0,1-3-3V1a3,3,0,0,1,3-3h25.754a3,3,0,0,1,3,3V18.071a3,3,0,0,1-3,3h-3.2c-1.291,2.775,1.471,6.928,1.471,6.928A15.631,15.631,0,0,1,1538.236,26.214Z" transform="translate(-1119 219)"/>
  </g>
</svg>
