<svg xmlns="http://www.w3.org/2000/svg" width="28" height="28" viewBox="0 0 28 28">
  <defs>
    <style>
      .cls-1 {
        fill: #505560;
      }
    </style>
  </defs>
  <path id="제외_6" data-name="제외 6" class="cls-1" d="M1314,28a14,14,0,0,1-9.9-23.9,14,14,0,0,1,19.8,19.8A13.908,13.908,0,0,1,1314,28Zm2.283-21.754a.976.976,0,0,0-.695.288l-6.942,6.943a.981.981,0,0,0,0,1.389l6.942,6.942a.982.982,0,1,0,1.389-1.389l-6.248-6.248,6.248-6.248a.983.983,0,0,0-.694-1.677Z" transform="translate(-1300)"/>
</svg>
