<svg xmlns="http://www.w3.org/2000/svg" width="32" height="32" viewBox="0 0 32 32">
  <defs>
    <style>
      .cls-1 {
        fill: none;
      }

      .cls-2 {
        fill: #202326;
      }
    </style>
  </defs>
  <g id="그룹_199" data-name="그룹 199" transform="translate(-339 -34)">
    <g id="그룹_198" data-name="그룹 198" transform="translate(339 34)">
      <rect id="사각형_301" data-name="사각형 301" class="cls-1" width="32" height="32"/>
    </g>
    <path id="합치기_12" data-name="합치기 12" class="cls-2" d="M13,23.646l0,0v-.005c-.246-.178-7-5.093-10.189-9.2C-.119,10.669-.032,7.577.013,7.007c0-.051,0-.1,0-.153A6.764,6.764,0,0,1,12.952,4.01L13,4V4H13V4l.039.009a6.764,6.764,0,0,1,12.94,2.846c0,.03,0,.061,0,.091.036.351.271,3.551-2.79,7.5-3.186,4.107-9.943,9.022-10.188,9.2v.005Z" transform="translate(342 38)"/>
  </g>
</svg>
